<svg width="1280" height="720" xmlns="http://www.w3.org/2000/svg" xmlns:xlink="http://www.w3.org/1999/xlink" overflow="hidden"><defs><linearGradient x1="293.5" y1="191.5" x2="293.5" y2="439.5" gradientUnits="userSpaceOnUse" spreadMethod="reflect" id="fill0"><stop offset="0" stop-color="#D2D2D2"/><stop offset="0.5" stop-color="#C8C8C8"/><stop offset="1" stop-color="#C0C0C0"/></linearGradient><linearGradient x1="437.5" y1="256.5" x2="365.5" y2="256.5" gradientUnits="userSpaceOnUse" spreadMethod="reflect" id="fill1"><stop offset="0" stop-color="#F7BDA4"/><stop offset="0.5" stop-color="#F5B195"/><stop offset="1" stop-color="#F8A581"/></linearGradient><linearGradient x1="437.5" y1="256.5" x2="365.5" y2="256.5" gradientUnits="userSpaceOnUse" spreadMethod="reflect" id="fill2"><stop offset="0" stop-color="#FAD7C8"/><stop offset="0.5" stop-color="#F9D0BF"/><stop offset="1" stop-color="#FBC9B3"/></linearGradient><linearGradient x1="437.5" y1="367" x2="365.5" y2="367" gradientUnits="userSpaceOnUse" spreadMethod="reflect" id="fill3"><stop offset="0" stop-color="#B5D5A7"/><stop offset="0.5" stop-color="#AACE99"/><stop offset="1" stop-color="#9CCA86"/></linearGradient><linearGradient x1="437.5" y1="367" x2="365.5" y2="367" gradientUnits="userSpaceOnUse" spreadMethod="reflect" id="fill4"><stop offset="0" stop-color="#D3E6CA"/><stop offset="0.5" stop-color="#CCE2C2"/><stop offset="1" stop-color="#C4DFB6"/></linearGradient><linearGradient x1="730" y1="277.5" x2="730" y2="357.5" gradientUnits="userSpaceOnUse" spreadMethod="reflect" id="fill5"><stop offset="0" stop-color="#D2D2D2"/><stop offset="0.5" stop-color="#C8C8C8"/><stop offset="1" stop-color="#C0C0C0"/></linearGradient></defs><g><rect x="0" y="0" width="1280" height="720" fill="#FFFFFF"/><rect x="182.5" y="191.5" width="222" height="248" stroke="#A5A5A5" stroke-width="0.666667" stroke-miterlimit="8" fill="url(#fill0)"/><text font-family="Times New Roman,Times New Roman_MSFontService,sans-serif" font-weight="400" font-size="24" transform="translate(207.362 323)">Ultrasonic Sensor</text><path d="M429.75 225.5C425.47 225.5 422 239.379 422 256.5 422 273.621 425.47 287.5 429.75 287.5L373.25 287.5C368.97 287.5 365.5 273.621 365.5 256.5 365.5 239.379 368.97 225.5 373.25 225.5Z" fill="url(#fill1)" fill-rule="evenodd"/><path d="M429.75 225.5C434.03 225.5 437.5 239.379 437.5 256.5 437.5 273.621 434.03 287.5 429.75 287.5 425.47 287.5 422 273.621 422 256.5 422 239.379 425.47 225.5 429.75 225.5Z" fill="url(#fill2)" fill-rule="evenodd"/><path d="M429.75 287.5C425.47 287.5 422 273.621 422 256.5 422 239.379 425.47 225.5 429.75 225.5 434.03 225.5 437.5 239.379 437.5 256.5 437.5 273.621 434.03 287.5 429.75 287.5L373.25 287.5C368.97 287.5 365.5 273.621 365.5 256.5 365.5 239.379 368.97 225.5 373.25 225.5L429.75 225.5" stroke="#ED7D31" stroke-width="0.666667" stroke-miterlimit="8" fill="none" fill-rule="evenodd"/><text font-family="Times New Roman,Times New Roman_MSFontService,sans-serif" font-weight="400" font-size="24" transform="translate(383.427 265)">Tx</text><path d="M429.625 335.5C425.276 335.5 421.75 349.603 421.75 367 421.75 384.397 425.276 398.5 429.625 398.5L373.375 398.5C369.026 398.5 365.5 384.397 365.5 367 365.5 349.603 369.026 335.5 373.375 335.5Z" fill="url(#fill3)" fill-rule="evenodd"/><path d="M429.625 335.5C433.974 335.5 437.5 349.603 437.5 367 437.5 384.397 433.974 398.5 429.625 398.5 425.276 398.5 421.75 384.397 421.75 367 421.75 349.603 425.276 335.5 429.625 335.5Z" fill="url(#fill4)" fill-rule="evenodd"/><path d="M429.625 398.5C425.276 398.5 421.75 384.397 421.75 367 421.75 349.603 425.276 335.5 429.625 335.5 433.974 335.5 437.5 349.603 437.5 367 437.5 384.397 433.974 398.5 429.625 398.5L373.375 398.5C369.026 398.5 365.5 384.397 365.5 367 365.5 349.603 369.026 335.5 373.375 335.5L429.625 335.5" stroke="#70AD47" stroke-width="0.666667" stroke-miterlimit="8" fill="none" fill-rule="evenodd"/><text font-family="Times New Roman,Times New Roman_MSFontService,sans-serif" font-weight="400" font-size="24" transform="translate(382.76 375)">Rx</text><text font-family="Times New Roman,Times New Roman_MSFontService,sans-serif" font-weight="400" font-size="24" transform="translate(250.153 520)">(a)</text><path d="M437.503 255.167 525.431 256.061 525.424 256.728 437.497 255.833ZM524.135 252.381 532.094 256.462 524.053 260.381Z"/><path d="M438.5 255.171C443.787 240.617 449.073 226.063 453.06 230.221 457.047 234.379 458.433 276.483 462.42 280.121 466.407 283.76 473.34 260.196 476.98 252.052 480.62 243.909 482.18 230.914 484.26 231.261 486.34 231.607 488.247 246.161 489.46 254.132 490.673 262.102 489.807 279.255 491.54 279.082 493.273 278.908 496.567 260.022 499.86 253.092 503.153 246.161 508.527 236.459 511.3 237.498 514.073 238.538 514.247 257.25 516.5 259.329" stroke="#172C51" stroke-width="1.33333" stroke-miterlimit="8" fill="none" fill-rule="evenodd"/><rect x="662.5" y="277.5" width="135" height="80" stroke="#A5A5A5" stroke-width="0.666667" stroke-miterlimit="8" fill="url(#fill5)"/><text font-family="Times New Roman,Times New Roman_MSFontService,sans-serif" font-weight="400" font-size="24" transform="translate(679.543 311)">Ultrasonic</text><text font-family="Times New Roman,Times New Roman_MSFontService,sans-serif" font-weight="400" font-size="24" transform="translate(696.877 340)">Sensor</text><path d="M1003 194 1003 404.581" stroke="#000000" stroke-width="2" stroke-miterlimit="8" fill="none" fill-rule="evenodd"/><path d="M797.5 293.833 996.253 293.833 996.253 295.167 797.5 295.167ZM994.919 290.5 1002.92 294.5 994.919 298.5Z" fill="#ED7D31"/><path d="M3.40724e-07-0.666667 198.753-0.666565 198.753 0.666768-3.40724e-07 0.666667ZM197.419-3.9999 205.419 0.000104987 197.419 4.0001Z" fill="#70AD47" transform="matrix(-1 0 0 1 1002.92 333.5)"/><text font-family="Times New Roman,Times New Roman_MSFontService,sans-serif" font-weight="400" font-size="24" transform="translate(877.804 257)">d</text><path d="M804.167 266.167 996.253 266.167 996.253 266.833 804.167 266.833ZM805.5 270.5 797.5 266.5 805.5 262.5ZM994.919 262.5 1002.92 266.5 994.919 270.5Z"/><text font-family="Times New Roman,Times New Roman_MSFontService,sans-serif" font-weight="400" font-size="24" transform="translate(861.703 523)">(b)</text><path d="M0.00339085-0.333316 87.9308 0.561177 87.924 1.22781-0.00339085 0.333316ZM86.6348-3.11886 94.5937 0.96231 86.5534 4.88072Z" transform="matrix(-1 0 0 1 534.094 364.5)"/><path d="M0 25.6711C5.2867 11.1169 10.5734-3.43725 14.56 0.721093 18.5467 4.87943 19.9334 46.9826 23.92 50.6212 27.9066 54.2597 34.84 30.6957 38.48 22.5523 42.12 14.409 43.6801 1.41417 45.76 1.76065 47.84 2.10714 49.7467 16.6614 50.96 24.6316 52.1733 32.6018 51.3066 49.7549 53.0399 49.5816 54.7733 49.4083 58.0666 30.5224 61.3599 23.5919 64.6533 16.6614 70.0266 6.95865 72.7999 7.99821 75.5732 9.03777 75.7467 27.7504 78 29.8295" stroke="#172C51" stroke-width="1.33333" stroke-miterlimit="8" fill="none" fill-rule="evenodd" transform="matrix(-1 0 0 1 533.5 335.5)"/></g></svg>