<svg width="1280" height="720" xmlns="http://www.w3.org/2000/svg" xmlns:xlink="http://www.w3.org/1999/xlink" overflow="hidden"><defs><linearGradient x1="429.5" y1="284.5" x2="429.5" y2="363.5" gradientUnits="userSpaceOnUse" spreadMethod="reflect" id="fill0"><stop offset="0" stop-color="#D2D2D2"/><stop offset="0.5" stop-color="#C8C8C8"/><stop offset="1" stop-color="#C0C0C0"/></linearGradient></defs><g><rect x="0" y="0" width="1280" height="720" fill="#FFFFFF"/><rect x="361.5" y="284.5" width="136" height="79" stroke="#A5A5A5" stroke-width="0.666667" stroke-miterlimit="8" fill="url(#fill0)"/><text font-family="Calibri,Calibri_MSFontService,sans-serif" font-weight="400" font-size="24" transform="translate(379.65 317)">Ultrasonic</text><text font-family="Calibri,Calibri_MSFontService,sans-serif" font-weight="400" font-size="24" transform="translate(395.903 346)">Sensor</text><path d="M702 200 702 410.581" stroke="#000000" stroke-width="2" stroke-miterlimit="8" fill="none" fill-rule="evenodd"/><path d="M497.5 299.833 696.253 299.833 696.253 301.167 497.5 301.167ZM694.919 296.5 702.919 300.5 694.919 304.5Z" fill="#ED7D31"/><path d="M3.40724e-07-0.666667 198.753-0.666565 198.753 0.666768-3.40724e-07 0.666667ZM197.419-3.9999 205.419 0.000104987 197.419 4.0001Z" fill="#70AD47" transform="matrix(-1 0 0 1 702.919 339.5)"/><text font-family="Calibri,Calibri_MSFontService,sans-serif" font-weight="400" font-size="24" transform="translate(577.164 262)">d</text><path d="M504.166 273.167 696.253 273.167 696.253 273.833 504.166 273.833ZM505.5 277.5 497.5 273.5 505.5 269.5ZM694.919 269.5 702.919 273.5 694.919 277.5Z"/><text font-family="Calibri,Calibri_MSFontService,sans-serif" font-weight="400" font-size="24" transform="translate(651.664 442)">Obstacle</text><text font-family="Calibri,Calibri_MSFontService,sans-serif" font-weight="400" font-size="24" transform="translate(651.664 471)">e.g.,</text><text font-family="Calibri,Calibri_MSFontService,sans-serif" font-weight="400" font-size="24" transform="translate(698.758 471)">Wall,</text><text font-family="Calibri,Calibri_MSFontService,sans-serif" font-weight="400" font-size="24" transform="translate(753.258 471)">Other</text><text font-family="Calibri,Calibri_MSFontService,sans-serif" font-weight="400" font-size="24" transform="translate(815.591 471)">cars,</text><text font-family="Calibri,Calibri_MSFontService,sans-serif" font-weight="400" font-size="24" transform="translate(865.811 471)">etc</text><text font-family="Calibri,Calibri_MSFontService,sans-serif" font-weight="400" font-size="24" transform="translate(895.558 471)">.</text></g></svg>