<svg width="1280" height="720" xmlns="http://www.w3.org/2000/svg" xmlns:xlink="http://www.w3.org/1999/xlink" overflow="hidden"><defs><linearGradient x1="156" y1="253.5" x2="156" y2="332.5" gradientUnits="userSpaceOnUse" spreadMethod="reflect" id="fill0"><stop offset="0" stop-color="#D2D2D2"/><stop offset="0.5" stop-color="#C8C8C8"/><stop offset="1" stop-color="#C0C0C0"/></linearGradient><linearGradient x1="992.5" y1="169.5" x2="992.5" y2="417.5" gradientUnits="userSpaceOnUse" spreadMethod="reflect" id="fill1"><stop offset="0" stop-color="#D2D2D2"/><stop offset="0.5" stop-color="#C8C8C8"/><stop offset="1" stop-color="#C0C0C0"/></linearGradient><linearGradient x1="1165.5" y1="235" x2="1093.5" y2="235" gradientUnits="userSpaceOnUse" spreadMethod="reflect" id="fill2"><stop offset="0" stop-color="#F7BDA4"/><stop offset="0.5" stop-color="#F5B195"/><stop offset="1" stop-color="#F8A581"/></linearGradient><linearGradient x1="1165.5" y1="235" x2="1093.5" y2="235" gradientUnits="userSpaceOnUse" spreadMethod="reflect" id="fill3"><stop offset="0" stop-color="#FAD7C8"/><stop offset="0.5" stop-color="#F9D0BF"/><stop offset="1" stop-color="#FBC9B3"/></linearGradient><linearGradient x1="1165.5" y1="345" x2="1093.5" y2="345" gradientUnits="userSpaceOnUse" spreadMethod="reflect" id="fill4"><stop offset="0" stop-color="#B5D5A7"/><stop offset="0.5" stop-color="#AACE99"/><stop offset="1" stop-color="#9CCA86"/></linearGradient><linearGradient x1="1165.5" y1="345" x2="1093.5" y2="345" gradientUnits="userSpaceOnUse" spreadMethod="reflect" id="fill5"><stop offset="0" stop-color="#D3E6CA"/><stop offset="0.5" stop-color="#CCE2C2"/><stop offset="1" stop-color="#C4DFB6"/></linearGradient></defs><g><rect x="0" y="0" width="1280" height="720" fill="#FFFFFF"/><rect x="88.5001" y="253.5" width="135" height="79" stroke="#A5A5A5" stroke-width="0.666667" stroke-miterlimit="8" fill="url(#fill0)"/><text font-family="LM Roman 10,LM Roman 10_MSFontService,sans-serif" font-weight="400" font-size="24" transform="translate(101.368 287)">Ultrasonic</text><text font-family="LM Roman 10,LM Roman 10_MSFontService,sans-serif" font-weight="400" font-size="24" transform="translate(121.034 316)">Sensor</text><path d="M428 169 428 379.581" stroke="#000000" stroke-width="2" stroke-miterlimit="8" fill="none" fill-rule="evenodd"/><path d="M223.5 268.833 422.253 268.833 422.253 270.167 223.5 270.167ZM420.919 265.5 428.919 269.5 420.919 273.5Z" fill="#ED7D31"/><path d="M3.40724e-07-0.666667 198.753-0.666565 198.753 0.666768-3.40724e-07 0.666667ZM197.419-3.9999 205.419 0.000104987 197.419 4.0001Z" fill="#70AD47" transform="matrix(-1 0 0 1 428.919 308.5)"/><text font-family="LM Roman 10,LM Roman 10_MSFontService,sans-serif" font-weight="400" font-size="24" transform="translate(303.379 232)">d</text><path d="M230.166 242.167 422.253 242.167 422.253 242.833 230.166 242.833ZM231.5 246.5 223.5 242.5 231.5 238.5ZM420.919 238.5 428.919 242.5 420.919 246.5Z"/><text font-family="LM Roman 10,LM Roman 10_MSFontService,sans-serif" font-weight="400" font-size="24" transform="translate(377.879 412)">Obstacle</text><text font-family="LM Roman 10,LM Roman 10_MSFontService,sans-serif" font-weight="400" font-size="24" transform="translate(377.879 441)">e.g.,</text><text font-family="LM Roman 10,LM Roman 10_MSFontService,sans-serif" font-weight="400" font-size="24" transform="translate(428.546 441)">Wall,</text><text font-family="LM Roman 10,LM Roman 10_MSFontService,sans-serif" font-weight="400" font-size="24" transform="translate(491.219 441)">Other</text><text font-family="LM Roman 10,LM Roman 10_MSFontService,sans-serif" font-weight="400" font-size="24" transform="translate(560.552 441)">cars,</text><text font-family="LM Roman 10,LM Roman 10_MSFontService,sans-serif" font-weight="400" font-size="24" transform="translate(616.719 441)">etc</text><text font-family="LM Roman 10,LM Roman 10_MSFontService,sans-serif" font-weight="400" font-size="24" transform="translate(647.385 441)">.</text><rect x="852.5" y="169.5" width="280" height="248" stroke="#A5A5A5" stroke-width="0.666667" stroke-miterlimit="8" fill="url(#fill1)"/><text font-family="LM Roman 10,LM Roman 10_MSFontService,sans-serif" font-weight="400" font-size="24" transform="translate(900.146 302)">Ultrasonic Sensor</text><path d="M1157.62 203.5C1153.28 203.5 1149.75 217.603 1149.75 235 1149.75 252.397 1153.28 266.5 1157.62 266.5L1101.38 266.5C1097.03 266.5 1093.5 252.397 1093.5 235 1093.5 217.603 1097.03 203.5 1101.38 203.5Z" fill="url(#fill2)" fill-rule="evenodd"/><path d="M1157.62 203.5C1161.97 203.5 1165.5 217.603 1165.5 235 1165.5 252.397 1161.97 266.5 1157.62 266.5 1153.28 266.5 1149.75 252.397 1149.75 235 1149.75 217.603 1153.28 203.5 1157.62 203.5Z" fill="url(#fill3)" fill-rule="evenodd"/><path d="M1157.62 266.5C1153.28 266.5 1149.75 252.397 1149.75 235 1149.75 217.603 1153.28 203.5 1157.62 203.5 1161.97 203.5 1165.5 217.603 1165.5 235 1165.5 252.397 1161.97 266.5 1157.62 266.5L1101.38 266.5C1097.03 266.5 1093.5 252.397 1093.5 235 1093.5 217.603 1097.03 203.5 1101.38 203.5L1157.62 203.5" stroke="#ED7D31" stroke-width="0.666667" stroke-miterlimit="8" fill="none" fill-rule="evenodd"/><text font-family="LM Roman 10,LM Roman 10_MSFontService,sans-serif" font-weight="400" font-size="24" transform="translate(1111.28 243)">Tx</text><path d="M1157.62 313.5C1153.28 313.5 1149.75 327.603 1149.75 345 1149.75 362.397 1153.28 376.5 1157.62 376.5L1101.38 376.5C1097.03 376.5 1093.5 362.397 1093.5 345 1093.5 327.603 1097.03 313.5 1101.38 313.5Z" fill="url(#fill4)" fill-rule="evenodd"/><path d="M1157.62 313.5C1161.97 313.5 1165.5 327.603 1165.5 345 1165.5 362.397 1161.97 376.5 1157.62 376.5 1153.28 376.5 1149.75 362.397 1149.75 345 1149.75 327.603 1153.28 313.5 1157.62 313.5Z" fill="url(#fill5)" fill-rule="evenodd"/><path d="M1157.62 376.5C1153.28 376.5 1149.75 362.397 1149.75 345 1149.75 327.603 1153.28 313.5 1157.62 313.5 1161.97 313.5 1165.5 327.603 1165.5 345 1165.5 362.397 1161.97 376.5 1157.62 376.5L1101.38 376.5C1097.03 376.5 1093.5 362.397 1093.5 345 1093.5 327.603 1097.03 313.5 1101.38 313.5L1157.62 313.5" stroke="#70AD47" stroke-width="0.666667" stroke-miterlimit="8" fill="none" fill-rule="evenodd"/><text font-family="LM Roman 10,LM Roman 10_MSFontService,sans-serif" font-weight="400" font-size="24" transform="translate(1110.12 353)">Rx</text><text font-family="LM Roman 10,LM Roman 10_MSFontService,sans-serif" font-weight="400" font-size="24" transform="translate(287.277 499)">(a</text><text font-family="LM Roman 10,LM Roman 10_MSFontService,sans-serif" font-weight="400" font-size="24" transform="translate(308.611 499)">)</text><text font-family="LM Roman 10,LM Roman 10_MSFontService,sans-serif" font-weight="400" font-size="24" transform="translate(978.675 499)">(b)</text><text font-family="LM Roman 10,LM Roman 10_MSFontService,sans-serif" font-weight="400" font-size="24" transform="translate(626.695 545)">Fig. 1.</text></g></svg>