<svg width="1280" height="720" xmlns="http://www.w3.org/2000/svg" xmlns:xlink="http://www.w3.org/1999/xlink" overflow="hidden"><defs><linearGradient x1="664.5" y1="125.5" x2="664.5" y2="546.5" gradientUnits="userSpaceOnUse" spreadMethod="reflect" id="fill0"><stop offset="0" stop-color="#D2D2D2"/><stop offset="0.5" stop-color="#C8C8C8"/><stop offset="1" stop-color="#C0C0C0"/></linearGradient><linearGradient x1="997.5" y1="373.5" x2="997.5" y2="512.5" gradientUnits="userSpaceOnUse" spreadMethod="reflect" id="fill1"><stop offset="0" stop-color="#B1CBE9"/><stop offset="0.5" stop-color="#A3C1E5"/><stop offset="1" stop-color="#92B9E4"/></linearGradient><linearGradient x1="1129.5" y1="405" x2="1075.5" y2="405" gradientUnits="userSpaceOnUse" spreadMethod="reflect" id="fill2"><stop offset="0" stop-color="#F7BDA4"/><stop offset="0.5" stop-color="#F5B195"/><stop offset="1" stop-color="#F8A581"/></linearGradient><linearGradient x1="1129.5" y1="405" x2="1075.5" y2="405" gradientUnits="userSpaceOnUse" spreadMethod="reflect" id="fill3"><stop offset="0" stop-color="#FAD7C8"/><stop offset="0.5" stop-color="#F9D0BF"/><stop offset="1" stop-color="#FBC9B3"/></linearGradient><linearGradient x1="1129.5" y1="479" x2="1075.5" y2="479" gradientUnits="userSpaceOnUse" spreadMethod="reflect" id="fill4"><stop offset="0" stop-color="#B5D5A7"/><stop offset="0.5" stop-color="#AACE99"/><stop offset="1" stop-color="#9CCA86"/></linearGradient><linearGradient x1="1129.5" y1="479" x2="1075.5" y2="479" gradientUnits="userSpaceOnUse" spreadMethod="reflect" id="fill5"><stop offset="0" stop-color="#D3E6CA"/><stop offset="0.5" stop-color="#CCE2C2"/><stop offset="1" stop-color="#C4DFB6"/></linearGradient><linearGradient x1="326.5" y1="373.5" x2="326.5" y2="527.5" gradientUnits="userSpaceOnUse" spreadMethod="reflect" id="fill6"><stop offset="0" stop-color="#B1CBE9"/><stop offset="0.5" stop-color="#A3C1E5"/><stop offset="1" stop-color="#92B9E4"/></linearGradient><linearGradient x1="201.5" y1="407.5" x2="256.5" y2="407.5" gradientUnits="userSpaceOnUse" spreadMethod="reflect" id="fill7"><stop offset="0" stop-color="#F7BDA4"/><stop offset="0.5" stop-color="#F5B195"/><stop offset="1" stop-color="#F8A581"/></linearGradient><linearGradient x1="201.5" y1="407.5" x2="256.5" y2="407.5" gradientUnits="userSpaceOnUse" spreadMethod="reflect" id="fill8"><stop offset="0" stop-color="#FAD7C8"/><stop offset="0.5" stop-color="#F9D0BF"/><stop offset="1" stop-color="#FBC9B3"/></linearGradient><linearGradient x1="201.5" y1="481.5" x2="256.5" y2="481.5" gradientUnits="userSpaceOnUse" spreadMethod="reflect" id="fill9"><stop offset="0" stop-color="#B5D5A7"/><stop offset="0.5" stop-color="#AACE99"/><stop offset="1" stop-color="#9CCA86"/></linearGradient><linearGradient x1="201.5" y1="481.5" x2="256.5" y2="481.5" gradientUnits="userSpaceOnUse" spreadMethod="reflect" id="fill10"><stop offset="0" stop-color="#D3E6CA"/><stop offset="0.5" stop-color="#CCE2C2"/><stop offset="1" stop-color="#C4DFB6"/></linearGradient><linearGradient x1="351.5" y1="137.5" x2="351.5" y2="275.5" gradientUnits="userSpaceOnUse" spreadMethod="reflect" id="fill11"><stop offset="0" stop-color="#FFDD9C"/><stop offset="0.5" stop-color="#FFD78E"/><stop offset="1" stop-color="#FFD479"/></linearGradient><linearGradient x1="665" y1="145.5" x2="665" y2="252.5" gradientUnits="userSpaceOnUse" spreadMethod="reflect" id="fill12"><stop offset="0" stop-color="#F7BDA4"/><stop offset="0.5" stop-color="#F5B195"/><stop offset="1" stop-color="#F8A581"/></linearGradient></defs><g><rect x="0" y="0" width="1280" height="720" fill="#FFFFFF"/><rect x="548.5" y="125.5" width="232" height="421" stroke="#000000" stroke-width="0.666667" stroke-miterlimit="8" fill="url(#fill0)"/><text font-family="Times New Roman,Times New Roman_MSFontService,sans-serif" font-weight="400" font-size="24" transform="translate(600.828 301)">Tiva</text><text font-family="Times New Roman,Times New Roman_MSFontService,sans-serif" font-weight="400" font-size="24" transform="translate(649.982 301)">C series</text><text font-family="Times New Roman,Times New Roman_MSFontService,sans-serif" font-weight="400" font-size="24" transform="translate(605.075 330)">TM4C123G</text><text font-family="Times New Roman,Times New Roman_MSFontService,sans-serif" font-weight="400" font-size="24" transform="translate(609.742 359)">LaunchPad</text><text font-family="Times New Roman,Times New Roman_MSFontService,sans-serif" font-weight="400" font-size="24" transform="translate(593.408 388)">Evaluation Kit</text><rect x="892.5" y="373.5" width="210" height="139" stroke="#5B9BD5" stroke-width="0.666667" stroke-miterlimit="8" fill="url(#fill1)"/><text font-family="Times New Roman,Times New Roman_MSFontService,sans-serif" font-weight="400" font-size="24" transform="translate(911.355 436)">Ultrasonic Sensor</text><text font-family="Times New Roman,Times New Roman_MSFontService,sans-serif" font-weight="400" font-size="24" transform="translate(949.689 465)">HC</text><text font-family="Times New Roman,Times New Roman_MSFontService,sans-serif" font-weight="400" font-size="24" transform="translate(983.022 465)">-</text><text font-family="Times New Roman,Times New Roman_MSFontService,sans-serif" font-weight="400" font-size="24" transform="translate(991.022 465)">SR04</text><path d="M1125.12 387.5C1122.71 387.5 1120.75 395.335 1120.75 405 1120.75 414.665 1122.71 422.5 1125.12 422.5L1079.88 422.5C1077.46 422.5 1075.5 414.665 1075.5 405 1075.5 395.335 1077.46 387.5 1079.88 387.5Z" fill="url(#fill2)" fill-rule="evenodd"/><path d="M1125.12 387.5C1127.54 387.5 1129.5 395.335 1129.5 405 1129.5 414.665 1127.54 422.5 1125.12 422.5 1122.71 422.5 1120.75 414.665 1120.75 405 1120.75 395.335 1122.71 387.5 1125.12 387.5Z" fill="url(#fill3)" fill-rule="evenodd"/><path d="M1125.12 422.5C1122.71 422.5 1120.75 414.665 1120.75 405 1120.75 395.335 1122.71 387.5 1125.12 387.5 1127.54 387.5 1129.5 395.335 1129.5 405 1129.5 414.665 1127.54 422.5 1125.12 422.5L1079.88 422.5C1077.46 422.5 1075.5 414.665 1075.5 405 1075.5 395.335 1077.46 387.5 1079.88 387.5L1125.12 387.5" stroke="#ED7D31" stroke-width="0.666667" stroke-miterlimit="8" fill="none" fill-rule="evenodd"/><text font-family="Times New Roman,Times New Roman_MSFontService,sans-serif" font-weight="400" font-size="24" transform="translate(1086.63 413)">Tx</text><path d="M1125.12 461.5C1122.71 461.5 1120.75 469.335 1120.75 479 1120.75 488.665 1122.71 496.5 1125.12 496.5L1079.88 496.5C1077.46 496.5 1075.5 488.665 1075.5 479 1075.5 469.335 1077.46 461.5 1079.88 461.5Z" fill="url(#fill4)" fill-rule="evenodd"/><path d="M1125.12 461.5C1127.54 461.5 1129.5 469.335 1129.5 479 1129.5 488.665 1127.54 496.5 1125.12 496.5 1122.71 496.5 1120.75 488.665 1120.75 479 1120.75 469.335 1122.71 461.5 1125.12 461.5Z" fill="url(#fill5)" fill-rule="evenodd"/><path d="M1125.12 496.5C1122.71 496.5 1120.75 488.665 1120.75 479 1120.75 469.335 1122.71 461.5 1125.12 461.5 1127.54 461.5 1129.5 469.335 1129.5 479 1129.5 488.665 1127.54 496.5 1125.12 496.5L1079.88 496.5C1077.46 496.5 1075.5 488.665 1075.5 479 1075.5 469.335 1077.46 461.5 1079.88 461.5L1125.12 461.5" stroke="#70AD47" stroke-width="0.666667" stroke-miterlimit="8" fill="none" fill-rule="evenodd"/><text font-family="Times New Roman,Times New Roman_MSFontService,sans-serif" font-weight="400" font-size="24" transform="translate(1085.97 487)">Rx</text><rect x="221.5" y="373.5" width="210" height="154" stroke="#5B9BD5" stroke-width="0.666667" stroke-miterlimit="8" fill="url(#fill6)"/><text font-family="Times New Roman,Times New Roman_MSFontService,sans-serif" font-weight="400" font-size="24" transform="translate(240.433 444)">Ultrasonic Sensor</text><text font-family="Times New Roman,Times New Roman_MSFontService,sans-serif" font-weight="400" font-size="24" transform="translate(278.766 473)">HC</text><text font-family="Times New Roman,Times New Roman_MSFontService,sans-serif" font-weight="400" font-size="24" transform="translate(312.1 473)">-</text><text font-family="Times New Roman,Times New Roman_MSFontService,sans-serif" font-weight="400" font-size="24" transform="translate(320.1 473)">SR04</text><path d="M206 425.5C208.485 425.5 210.5 417.441 210.5 407.5 210.5 397.559 208.485 389.5 206 389.5L252 389.5C254.485 389.5 256.5 397.559 256.5 407.5 256.5 417.441 254.485 425.5 252 425.5Z" fill="url(#fill7)" fill-rule="evenodd"/><path d="M206 425.5C203.515 425.5 201.5 417.441 201.5 407.5 201.5 397.559 203.515 389.5 206 389.5 208.485 389.5 210.5 397.559 210.5 407.5 210.5 417.441 208.485 425.5 206 425.5Z" fill="url(#fill8)" fill-rule="evenodd"/><path d="M206 389.5C208.485 389.5 210.5 397.559 210.5 407.5 210.5 417.441 208.485 425.5 206 425.5 203.515 425.5 201.5 417.441 201.5 407.5 201.5 397.559 203.515 389.5 206 389.5L252 389.5C254.485 389.5 256.5 397.559 256.5 407.5 256.5 417.441 254.485 425.5 252 425.5L206 425.5" stroke="#ED7D31" stroke-width="0.666667" stroke-miterlimit="8" fill="none" fill-rule="evenodd"/><text font-family="Times New Roman,Times New Roman_MSFontService,sans-serif" font-weight="400" font-size="24" transform="translate(217.387 416)">Tx</text><path d="M206 499.5C208.485 499.5 210.5 491.441 210.5 481.5 210.5 471.559 208.485 463.5 206 463.5L252 463.5C254.485 463.5 256.5 471.559 256.5 481.5 256.5 491.441 254.485 499.5 252 499.5Z" fill="url(#fill9)" fill-rule="evenodd"/><path d="M206 499.5C203.515 499.5 201.5 491.441 201.5 481.5 201.5 471.559 203.515 463.5 206 463.5 208.485 463.5 210.5 471.559 210.5 481.5 210.5 491.441 208.485 499.5 206 499.5Z" fill="url(#fill10)" fill-rule="evenodd"/><path d="M206 463.5C208.485 463.5 210.5 471.559 210.5 481.5 210.5 491.441 208.485 499.5 206 499.5 203.515 499.5 201.5 491.441 201.5 481.5 201.5 471.559 203.515 463.5 206 463.5L252 463.5C254.485 463.5 256.5 471.559 256.5 481.5 256.5 491.441 254.485 499.5 252 499.5L206 499.5" stroke="#70AD47" stroke-width="0.666667" stroke-miterlimit="8" fill="none" fill-rule="evenodd"/><text font-family="Times New Roman,Times New Roman_MSFontService,sans-serif" font-weight="400" font-size="24" transform="translate(216.72 490)">Rx</text><rect x="261.5" y="137.5" width="180" height="138" stroke="#FFC000" stroke-width="0.666667" stroke-miterlimit="8" fill="url(#fill11)"/><text font-family="Times New Roman,Times New Roman_MSFontService,sans-serif" font-weight="400" font-size="24" transform="translate(318.961 186)">OLED</text><text font-family="Times New Roman,Times New Roman_MSFontService,sans-serif" font-weight="400" font-size="24" transform="translate(308.961 215)">128 * 64</text><text font-family="Times New Roman,Times New Roman_MSFontService,sans-serif" font-weight="400" font-size="24" transform="translate(304.961 244)">SSD1306</text><path d="M780.5 403.833 885.833 403.833 885.833 405.167 780.5 405.167ZM884.5 400.5 892.5 404.5 884.5 408.5Z"/><path d="M0.00139415-0.666665 108.702-0.439347 108.699 0.893984-0.00139415 0.666665ZM107.376-3.77546 115.367 0.24126 107.359 4.22452Z" transform="matrix(1 0 0 -1 432.5 404.741)"/><path d="M544.5 476.178 439.167 476.167 439.167 474.834 544.5 474.844ZM440.5 479.501 432.5 475.5 440.5 471.501Z"/><path d="M889.5 476.178 784.167 476.167 784.167 474.834 889.5 474.844ZM785.5 479.501 777.5 475.5 785.5 471.501Z"/><path d="M1-2.21793e-06 1.00009 40.6688-0.99991 40.6688-1 2.21793e-06ZM4.00009 39.3354 0.000104987 47.3354-3.99991 39.3354Z" transform="matrix(1 0 0 -1 935 372.335)"/><path d="M1-3.13527e-06 1.00008 26.8191-0.999916 26.8191-1 3.13527e-06ZM4.00008 25.4858 0.000104987 33.4858-3.99992 25.4858Z" transform="matrix(1 0 0 -1 264 373.486)"/><path d="M1-2.21793e-06 1.00009 40.6688-0.99991 40.6688-1 2.21793e-06ZM4.00009 39.3354 0.000104987 47.3354-3.99991 39.3354Z" transform="matrix(1 0 0 -1 663 125.335)"/><path d="M1068 512 1068 529.223 1066 529.223 1066 512ZM1071 527.89 1067 535.89 1063 527.89Z"/><path d="M402 527 402 544.223 400 544.223 400 527ZM405 542.89 401 550.89 397 542.89Z"/><path d="M6.76349e-07-0.666667 96.8172-0.666568 96.8172 0.666765-6.76349e-07 0.666667ZM95.4839-3.9999 103.484 0.000104987 95.4839 4.0001Z" transform="matrix(-1 0 0 1 544.984 246.5)"/><path d="M448.167 180.833 541.685 180.833 541.685 182.167 448.167 182.167ZM449.5 185.5 441.5 181.5 449.5 177.5ZM540.351 177.5 548.351 181.5 540.351 185.5Z"/><path d="M664 546 664 563.223 662 563.223 662 546ZM667 561.89 663 569.89 659 561.89Z"/><path d="M1-2.96348e-06 1.00009 28.7602-0.999915 28.7602-1 2.96348e-06ZM4.00008 27.4269 0.000104987 35.4269-3.99992 27.4269Z" transform="matrix(1 0 0 -1 357 137.427)"/><path d="M355 275 355 287.816 353 287.816 353 275ZM358 286.483 354 294.483 350 286.483Z"/><text font-family="Times New Roman,Times New Roman_MSFontService,sans-serif" font-weight="400" font-size="24" transform="translate(921.434 319)">5V</text><text font-family="Times New Roman,Times New Roman_MSFontService,sans-serif" font-weight="400" font-size="24" transform="translate(241.849 333)">5V</text><text font-family="Times New Roman,Times New Roman_MSFontService,sans-serif" font-weight="400" font-size="24" transform="translate(335.689 322)">GND</text><text font-family="Times New Roman,Times New Roman_MSFontService,sans-serif" font-weight="400" font-size="24" transform="translate(331.497 94)">3.3V</text><text font-family="Times New Roman,Times New Roman_MSFontService,sans-serif" font-weight="400" font-size="24" transform="translate(643.732 594)">GND</text><text font-family="Times New Roman,Times New Roman_MSFontService,sans-serif" font-weight="400" font-size="24" transform="translate(384.335 575)">GND</text><text font-family="Times New Roman,Times New Roman_MSFontService,sans-serif" font-weight="400" font-size="24" transform="translate(475.833 173)">SDA</text><text font-family="Times New Roman,Times New Roman_MSFontService,sans-serif" font-weight="400" font-size="24" transform="translate(475.792 241)">SCL</text><text font-family="Times New Roman,Times New Roman_MSFontService,sans-serif" font-weight="400" font-size="24" transform="translate(1050.7 558)">GND</text><text font-family="Times New Roman,Times New Roman_MSFontService,sans-serif" font-weight="400" font-size="24" transform="translate(812.207 392)">Trig</text><text font-family="Times New Roman,Times New Roman_MSFontService,sans-serif" font-weight="400" font-size="24" transform="translate(812.465 468)">Echo</text><text font-family="Times New Roman,Times New Roman_MSFontService,sans-serif" font-weight="400" font-size="24" transform="translate(456.201 396)">Echo</text><text font-family="Times New Roman,Times New Roman_MSFontService,sans-serif" font-weight="400" font-size="24" transform="translate(458.289 469)">Trig</text><rect x="567.5" y="145.5" width="195" height="107" stroke="#ED7D31" stroke-width="0.666667" stroke-miterlimit="8" fill="url(#fill12)"/><text font-family="Times New Roman,Times New Roman_MSFontService,sans-serif" font-weight="400" font-size="21" transform="translate(583.894 206)">TM4C123GH6PM</text><text font-family="Times New Roman,Times New Roman_MSFontService,sans-serif" font-weight="400" font-size="24" transform="translate(646.274 71)">5V</text></g></svg>