<svg width="1280" height="720" xmlns="http://www.w3.org/2000/svg" xmlns:xlink="http://www.w3.org/1999/xlink" overflow="hidden"><defs><linearGradient x1="640.5" y1="138.5" x2="640.5" y2="559.5" gradientUnits="userSpaceOnUse" spreadMethod="reflect" id="fill0"><stop offset="0" stop-color="#D2D2D2"/><stop offset="0.5" stop-color="#C8C8C8"/><stop offset="1" stop-color="#C0C0C0"/></linearGradient><linearGradient x1="973.5" y1="186.5" x2="973.5" y2="325.5" gradientUnits="userSpaceOnUse" spreadMethod="reflect" id="fill1"><stop offset="0" stop-color="#B1CBE9"/><stop offset="0.5" stop-color="#A3C1E5"/><stop offset="1" stop-color="#92B9E4"/></linearGradient><linearGradient x1="1105.5" y1="218" x2="1051.5" y2="218" gradientUnits="userSpaceOnUse" spreadMethod="reflect" id="fill2"><stop offset="0" stop-color="#F7BDA4"/><stop offset="0.5" stop-color="#F5B195"/><stop offset="1" stop-color="#F8A581"/></linearGradient><linearGradient x1="1105.5" y1="218" x2="1051.5" y2="218" gradientUnits="userSpaceOnUse" spreadMethod="reflect" id="fill3"><stop offset="0" stop-color="#FAD7C8"/><stop offset="0.5" stop-color="#F9D0BF"/><stop offset="1" stop-color="#FBC9B3"/></linearGradient><linearGradient x1="1105.5" y1="292" x2="1051.5" y2="292" gradientUnits="userSpaceOnUse" spreadMethod="reflect" id="fill4"><stop offset="0" stop-color="#B5D5A7"/><stop offset="0.5" stop-color="#AACE99"/><stop offset="1" stop-color="#9CCA86"/></linearGradient><linearGradient x1="1105.5" y1="292" x2="1051.5" y2="292" gradientUnits="userSpaceOnUse" spreadMethod="reflect" id="fill5"><stop offset="0" stop-color="#D3E6CA"/><stop offset="0.5" stop-color="#CCE2C2"/><stop offset="1" stop-color="#C4DFB6"/></linearGradient><linearGradient x1="973.5" y1="395.5" x2="973.5" y2="534.5" gradientUnits="userSpaceOnUse" spreadMethod="reflect" id="fill6"><stop offset="0" stop-color="#B1CBE9"/><stop offset="0.5" stop-color="#A3C1E5"/><stop offset="1" stop-color="#92B9E4"/></linearGradient><linearGradient x1="1105.5" y1="427" x2="1051.5" y2="427" gradientUnits="userSpaceOnUse" spreadMethod="reflect" id="fill7"><stop offset="0" stop-color="#F7BDA4"/><stop offset="0.5" stop-color="#F5B195"/><stop offset="1" stop-color="#F8A581"/></linearGradient><linearGradient x1="1105.5" y1="427" x2="1051.5" y2="427" gradientUnits="userSpaceOnUse" spreadMethod="reflect" id="fill8"><stop offset="0" stop-color="#FAD7C8"/><stop offset="0.5" stop-color="#F9D0BF"/><stop offset="1" stop-color="#FBC9B3"/></linearGradient><linearGradient x1="1105.5" y1="501" x2="1051.5" y2="501" gradientUnits="userSpaceOnUse" spreadMethod="reflect" id="fill9"><stop offset="0" stop-color="#B5D5A7"/><stop offset="0.5" stop-color="#AACE99"/><stop offset="1" stop-color="#9CCA86"/></linearGradient><linearGradient x1="1105.5" y1="501" x2="1051.5" y2="501" gradientUnits="userSpaceOnUse" spreadMethod="reflect" id="fill10"><stop offset="0" stop-color="#D3E6CA"/><stop offset="0.5" stop-color="#CCE2C2"/><stop offset="1" stop-color="#C4DFB6"/></linearGradient><linearGradient x1="244.5" y1="264.5" x2="244.5" y2="433.5" gradientUnits="userSpaceOnUse" spreadMethod="reflect" id="fill11"><stop offset="0" stop-color="#FFDD9C"/><stop offset="0.5" stop-color="#FFD78E"/><stop offset="1" stop-color="#FFD479"/></linearGradient></defs><g><rect x="0" y="0" width="1280" height="720" fill="#FFFFFF"/><rect x="524.5" y="138.5" width="232" height="421" stroke="#000000" stroke-width="0.666667" stroke-miterlimit="8" fill="url(#fill0)"/><text font-family="LM Roman 10,LM Roman 10_MSFontService,sans-serif" font-weight="400" font-size="24" transform="translate(571.507 314)">Tiva</text><text font-family="LM Roman 10,LM Roman 10_MSFontService,sans-serif" font-weight="400" font-size="24" transform="translate(626.827 314)">C series</text><text font-family="LM Roman 10,LM Roman 10_MSFontService,sans-serif" font-weight="400" font-size="24" transform="translate(578.247 343)">TM4C123G</text><text font-family="LM Roman 10,LM Roman 10_MSFontService,sans-serif" font-weight="400" font-size="24" transform="translate(581.007 372)">LaunchPad</text><text font-family="LM Roman 10,LM Roman 10_MSFontService,sans-serif" font-weight="400" font-size="24" transform="translate(562.173 400)">Evaluation Kit</text><rect x="868.5" y="186.5" width="210" height="139" stroke="#5B9BD5" stroke-width="0.666667" stroke-miterlimit="8" fill="url(#fill1)"/><text font-family="LM Roman 10,LM Roman 10_MSFontService,sans-serif" font-weight="400" font-size="24" transform="translate(881.447 264)">Ultrasonic Sensor</text><path d="M1101.12 200.5C1098.71 200.5 1096.75 208.335 1096.75 218 1096.75 227.665 1098.71 235.5 1101.12 235.5L1055.88 235.5C1053.46 235.5 1051.5 227.665 1051.5 218 1051.5 208.335 1053.46 200.5 1055.88 200.5Z" fill="url(#fill2)" fill-rule="evenodd"/><path d="M1101.12 200.5C1103.54 200.5 1105.5 208.335 1105.5 218 1105.5 227.665 1103.54 235.5 1101.12 235.5 1098.71 235.5 1096.75 227.665 1096.75 218 1096.75 208.335 1098.71 200.5 1101.12 200.5Z" fill="url(#fill3)" fill-rule="evenodd"/><path d="M1101.12 235.5C1098.71 235.5 1096.75 227.665 1096.75 218 1096.75 208.335 1098.71 200.5 1101.12 200.5 1103.54 200.5 1105.5 208.335 1105.5 218 1105.5 227.665 1103.54 235.5 1101.12 235.5L1055.88 235.5C1053.46 235.5 1051.5 227.665 1051.5 218 1051.5 208.335 1053.46 200.5 1055.88 200.5L1101.12 200.5" stroke="#ED7D31" stroke-width="0.666667" stroke-miterlimit="8" fill="none" fill-rule="evenodd"/><text font-family="LM Roman 10,LM Roman 10_MSFontService,sans-serif" font-weight="400" font-size="24" transform="translate(1062.22 226)">Tx</text><path d="M1101.12 274.5C1098.71 274.5 1096.75 282.335 1096.75 292 1096.75 301.665 1098.71 309.5 1101.12 309.5L1055.88 309.5C1053.46 309.5 1051.5 301.665 1051.5 292 1051.5 282.335 1053.46 274.5 1055.88 274.5Z" fill="url(#fill4)" fill-rule="evenodd"/><path d="M1101.12 274.5C1103.54 274.5 1105.5 282.335 1105.5 292 1105.5 301.665 1103.54 309.5 1101.12 309.5 1098.71 309.5 1096.75 301.665 1096.75 292 1096.75 282.335 1098.71 274.5 1101.12 274.5Z" fill="url(#fill5)" fill-rule="evenodd"/><path d="M1101.12 309.5C1098.71 309.5 1096.75 301.665 1096.75 292 1096.75 282.335 1098.71 274.5 1101.12 274.5 1103.54 274.5 1105.5 282.335 1105.5 292 1105.5 301.665 1103.54 309.5 1101.12 309.5L1055.88 309.5C1053.46 309.5 1051.5 301.665 1051.5 292 1051.5 282.335 1053.46 274.5 1055.88 274.5L1101.12 274.5" stroke="#70AD47" stroke-width="0.666667" stroke-miterlimit="8" fill="none" fill-rule="evenodd"/><text font-family="LM Roman 10,LM Roman 10_MSFontService,sans-serif" font-weight="400" font-size="24" transform="translate(1061.06 300)">Rx</text><rect x="868.5" y="395.5" width="210" height="139" stroke="#5B9BD5" stroke-width="0.666667" stroke-miterlimit="8" fill="url(#fill6)"/><text font-family="LM Roman 10,LM Roman 10_MSFontService,sans-serif" font-weight="400" font-size="24" transform="translate(881.447 473)">Ultrasonic Sensor</text><path d="M1101.12 409.5C1098.71 409.5 1096.75 417.335 1096.75 427 1096.75 436.665 1098.71 444.5 1101.12 444.5L1055.88 444.5C1053.46 444.5 1051.5 436.665 1051.5 427 1051.5 417.335 1053.46 409.5 1055.88 409.5Z" fill="url(#fill7)" fill-rule="evenodd"/><path d="M1101.12 409.5C1103.54 409.5 1105.5 417.335 1105.5 427 1105.5 436.665 1103.54 444.5 1101.12 444.5 1098.71 444.5 1096.75 436.665 1096.75 427 1096.75 417.335 1098.71 409.5 1101.12 409.5Z" fill="url(#fill8)" fill-rule="evenodd"/><path d="M1101.12 444.5C1098.71 444.5 1096.75 436.665 1096.75 427 1096.75 417.335 1098.71 409.5 1101.12 409.5 1103.54 409.5 1105.5 417.335 1105.5 427 1105.5 436.665 1103.54 444.5 1101.12 444.5L1055.88 444.5C1053.46 444.5 1051.5 436.665 1051.5 427 1051.5 417.335 1053.46 409.5 1055.88 409.5L1101.12 409.5" stroke="#ED7D31" stroke-width="0.666667" stroke-miterlimit="8" fill="none" fill-rule="evenodd"/><text font-family="LM Roman 10,LM Roman 10_MSFontService,sans-serif" font-weight="400" font-size="24" transform="translate(1062.22 435)">Tx</text><path d="M1101.12 483.5C1098.71 483.5 1096.75 491.335 1096.75 501 1096.75 510.665 1098.71 518.5 1101.12 518.5L1055.88 518.5C1053.46 518.5 1051.5 510.665 1051.5 501 1051.5 491.335 1053.46 483.5 1055.88 483.5Z" fill="url(#fill9)" fill-rule="evenodd"/><path d="M1101.12 483.5C1103.54 483.5 1105.5 491.335 1105.5 501 1105.5 510.665 1103.54 518.5 1101.12 518.5 1098.71 518.5 1096.75 510.665 1096.75 501 1096.75 491.335 1098.71 483.5 1101.12 483.5Z" fill="url(#fill10)" fill-rule="evenodd"/><path d="M1101.12 518.5C1098.71 518.5 1096.75 510.665 1096.75 501 1096.75 491.335 1098.71 483.5 1101.12 483.5 1103.54 483.5 1105.5 491.335 1105.5 501 1105.5 510.665 1103.54 518.5 1101.12 518.5L1055.88 518.5C1053.46 518.5 1051.5 510.665 1051.5 501 1051.5 491.335 1053.46 483.5 1055.88 483.5L1101.12 483.5" stroke="#70AD47" stroke-width="0.666667" stroke-miterlimit="8" fill="none" fill-rule="evenodd"/><text font-family="LM Roman 10,LM Roman 10_MSFontService,sans-serif" font-weight="400" font-size="24" transform="translate(1061.06 509)">Rx</text><rect x="120.5" y="264.5" width="248" height="169" stroke="#FFC000" stroke-width="0.666667" stroke-miterlimit="8" fill="url(#fill11)"/><text font-family="LM Roman 10,LM Roman 10_MSFontService,sans-serif" font-weight="400" font-size="24" transform="translate(190.044 314)">Peripheral</text><text font-family="LM Roman 10,LM Roman 10_MSFontService,sans-serif" font-weight="400" font-size="24" transform="translate(133.124 343)">Such as</text><text font-family="LM Roman 10,LM Roman 10_MSFontService,sans-serif" font-weight="400" font-size="24" transform="translate(220.618 343)">PC/</text><text font-family="LM Roman 10,LM Roman 10_MSFontService,sans-serif" font-weight="400" font-size="24" transform="translate(274.284 343)">OLED/</text><text font-family="LM Roman 10,LM Roman 10_MSFontService,sans-serif" font-weight="400" font-size="24" transform="translate(168.704 372)">On</text><text font-family="LM Roman 10,LM Roman 10_MSFontService,sans-serif" font-weight="400" font-size="24" transform="translate(200.704 372)">-</text><text font-family="LM Roman 10,LM Roman 10_MSFontService,sans-serif" font-weight="400" font-size="24" transform="translate(208.704 372)">board LED</text><text font-family="LM Roman 10,LM Roman 10_MSFontService,sans-serif" font-weight="400" font-size="24" transform="translate(208.204 400)">(TBD)</text><path d="M756.5 216.833 861.833 216.833 861.833 218.167 756.5 218.167ZM860.5 213.5 868.5 217.5 860.5 221.5Z"/><path d="M756.5 429.833 861.833 429.833 861.833 431.167 756.5 431.167ZM860.5 426.5 868.5 430.5 860.5 434.5Z"/><path d="M868.5 502.178 763.167 502.167 763.167 500.834 868.5 500.844ZM764.5 505.501 756.5 501.5 764.5 497.501Z"/><path d="M865.5 289.178 760.167 289.167 760.167 287.834 865.5 287.844ZM761.5 292.501 753.5 288.5 761.5 284.501Z"/><path d="M524.633 350.167 375.167 350.167 375.167 348.833 524.633 348.833ZM376.5 353.5 368.5 349.5 376.5 345.5Z"/></g></svg>