<svg width="1280" height="720" xmlns="http://www.w3.org/2000/svg" xmlns:xlink="http://www.w3.org/1999/xlink" overflow="hidden"><defs><linearGradient x1="237" y1="133.5" x2="237" y2="171.5" gradientUnits="userSpaceOnUse" spreadMethod="reflect" id="fill0"><stop offset="0" stop-color="#B5D5A7"/><stop offset="0.5" stop-color="#AACE99"/><stop offset="1" stop-color="#9CCA86"/></linearGradient><linearGradient x1="237" y1="194.5" x2="237" y2="245.5" gradientUnits="userSpaceOnUse" spreadMethod="reflect" id="fill1"><stop offset="0" stop-color="#D2D2D2"/><stop offset="0.5" stop-color="#C8C8C8"/><stop offset="1" stop-color="#C0C0C0"/></linearGradient><linearGradient x1="237" y1="269.5" x2="237" y2="319.5" gradientUnits="userSpaceOnUse" spreadMethod="reflect" id="fill2"><stop offset="0" stop-color="#D2D2D2"/><stop offset="0.5" stop-color="#C8C8C8"/><stop offset="1" stop-color="#C0C0C0"/></linearGradient><linearGradient x1="237" y1="343.5" x2="237" y2="394.5" gradientUnits="userSpaceOnUse" spreadMethod="reflect" id="fill3"><stop offset="0" stop-color="#D2D2D2"/><stop offset="0.5" stop-color="#C8C8C8"/><stop offset="1" stop-color="#C0C0C0"/></linearGradient><linearGradient x1="237" y1="412.5" x2="237" y2="463.5" gradientUnits="userSpaceOnUse" spreadMethod="reflect" id="fill4"><stop offset="0" stop-color="#D2D2D2"/><stop offset="0.5" stop-color="#C8C8C8"/><stop offset="1" stop-color="#C0C0C0"/></linearGradient><linearGradient x1="237" y1="486.5" x2="237" y2="536.5" gradientUnits="userSpaceOnUse" spreadMethod="reflect" id="fill5"><stop offset="0" stop-color="#D2D2D2"/><stop offset="0.5" stop-color="#C8C8C8"/><stop offset="1" stop-color="#C0C0C0"/></linearGradient><linearGradient x1="810.5" y1="72.5001" x2="810.5" y2="625.5" gradientUnits="userSpaceOnUse" spreadMethod="reflect" id="fill6"><stop offset="0" stop-color="#F7BDA4"/><stop offset="0.5" stop-color="#F5B195"/><stop offset="1" stop-color="#F8A581"/></linearGradient><linearGradient x1="814" y1="111.5" x2="814" y2="161.5" gradientUnits="userSpaceOnUse" spreadMethod="reflect" id="fill7"><stop offset="0" stop-color="#D2D2D2"/><stop offset="0.5" stop-color="#C8C8C8"/><stop offset="1" stop-color="#C0C0C0"/></linearGradient><linearGradient x1="814" y1="187.5" x2="814" y2="238.5" gradientUnits="userSpaceOnUse" spreadMethod="reflect" id="fill8"><stop offset="0" stop-color="#D2D2D2"/><stop offset="0.5" stop-color="#C8C8C8"/><stop offset="1" stop-color="#C0C0C0"/></linearGradient><linearGradient x1="814" y1="269.5" x2="814" y2="319.5" gradientUnits="userSpaceOnUse" spreadMethod="reflect" id="fill9"><stop offset="0" stop-color="#D2D2D2"/><stop offset="0.5" stop-color="#C8C8C8"/><stop offset="1" stop-color="#C0C0C0"/></linearGradient><linearGradient x1="814" y1="354.5" x2="814" y2="405.5" gradientUnits="userSpaceOnUse" spreadMethod="reflect" id="fill10"><stop offset="0" stop-color="#D2D2D2"/><stop offset="0.5" stop-color="#C8C8C8"/><stop offset="1" stop-color="#C0C0C0"/></linearGradient><linearGradient x1="814" y1="528.5" x2="814" y2="579.5" gradientUnits="userSpaceOnUse" spreadMethod="reflect" id="fill11"><stop offset="0" stop-color="#D2D2D2"/><stop offset="0.5" stop-color="#C8C8C8"/><stop offset="1" stop-color="#C0C0C0"/></linearGradient><linearGradient x1="814" y1="447.5" x2="814" y2="497.5" gradientUnits="userSpaceOnUse" spreadMethod="reflect" id="fill12"><stop offset="0" stop-color="#D2D2D2"/><stop offset="0.5" stop-color="#C8C8C8"/><stop offset="1" stop-color="#C0C0C0"/></linearGradient></defs><g><rect x="0" y="0" width="1280" height="720" fill="#FFFFFF"/><rect x="132.5" y="133.5" width="209" height="38" stroke="#70AD47" stroke-width="0.666667" stroke-miterlimit="8" fill="url(#fill0)"/><text font-family="Times New Roman,Times New Roman_MSFontService,sans-serif" font-weight="400" font-size="24" transform="translate(170.387 161)">Initializations</text><rect x="132.5" y="194.5" width="209" height="51" stroke="#A5A5A5" stroke-width="0.666667" stroke-miterlimit="8" fill="url(#fill1)"/><text font-family="Times New Roman,Times New Roman_MSFontService,sans-serif" font-weight="400" font-size="24" transform="translate(171.387 228)">Check switch</text><rect x="132.5" y="269.5" width="209" height="50" stroke="#A5A5A5" stroke-width="0.666667" stroke-miterlimit="8" fill="url(#fill2)"/><text font-family="Times New Roman,Times New Roman_MSFontService,sans-serif" font-weight="400" font-size="24" transform="translate(154.027 303)">Set Trig High (1)</text><rect x="132.5" y="343.5" width="209" height="51" stroke="#A5A5A5" stroke-width="0.666667" stroke-miterlimit="8" fill="url(#fill3)"/><text font-family="Times New Roman,Times New Roman_MSFontService,sans-serif" font-weight="400" font-size="24" transform="translate(176.773 377)">Wait (10</text><text font-family="Cambria Math,Cambria Math_MSFontService,sans-serif" font-weight="400" font-size="24" transform="translate(259.52 377)"></text><text font-family="Cambria Math,Cambria Math_MSFontService,sans-serif" font-weight="400" font-size="24" transform="translate(264.853 377)">𝜇</text><text font-family="Times New Roman,Times New Roman_MSFontService,sans-serif" font-weight="400" font-size="24" transform="translate(278.667 377)">s)</text><rect x="132.5" y="412.5" width="209" height="51" stroke="#A5A5A5" stroke-width="0.666667" stroke-miterlimit="8" fill="url(#fill4)"/><text font-family="Times New Roman,Times New Roman_MSFontService,sans-serif" font-weight="400" font-size="24" transform="translate(156.027 446)">Set Trig Low (0)</text><rect x="132.5" y="486.5" width="209" height="50" stroke="#A5A5A5" stroke-width="0.666667" stroke-miterlimit="8" fill="url(#fill5)"/><text font-family="Times New Roman,Times New Roman_MSFontService,sans-serif" font-weight="400" font-size="24" transform="translate(155.347 520)">Wait for (Echo*)</text><path d="M0.333333-1.52792e-06 0.333408 16.2374-0.333259 16.2374-0.333333 1.52792e-06ZM4.00007 14.904 0.000104987 22.904-3.99993 14.9041Z" transform="matrix(-1 0 0 1 236.5 171.5)"/><path d="M236.833 245.5 236.833 262.533 236.167 262.533 236.167 245.5ZM240.5 261.2 236.5 269.2 232.5 261.2Z"/><path d="M0.333333-2.95324e-06 0.333484 17.0332-0.333182 17.0332-0.333333 2.95324e-06ZM4.00014 15.6998 0.000209974 23.6998-3.99986 15.6999Z" transform="matrix(-1 0 0 1 236.5 319.5)"/><path d="M236.833 394.5 236.833 406.299 236.167 406.299 236.167 394.5ZM240.5 404.965 236.5 412.965 232.5 404.965Z"/><path d="M0.333333-1.50279e-06 0.333408 16.6204-0.333258 16.6204-0.333333 1.50279e-06ZM4.00007 15.287 0.000104987 23.287-3.99993 15.2871Z" transform="matrix(-1 0 0 1 236.5 463.5)"/><path d="M0.28672-0.170008 93.4034 156.872 92.83 157.212-0.28672 0.170008ZM95.8773 153.855 96.5168 162.777 88.996 157.936Z" transform="matrix(1 0 0 -1 341.5 511.277)"/><path d="M236.833 537.265 236.833 561.266 236.5 560.933 365.274 560.933 364.941 561.266 364.941 220.5 365.274 220.833 347.941 220.833 347.941 220.167 365.607 220.167 365.607 561.6 236.167 561.6 236.167 537.265ZM349.274 224.5 341.274 220.5 349.274 216.5Z"/><rect x="438.5" y="72.5001" width="744" height="553" stroke="#ED7D31" stroke-width="0.666667" stroke-miterlimit="8" fill="url(#fill6)"/><text font-family="Times New Roman,Times New Roman_MSFontService,sans-serif" font-weight="400" font-size="24" transform="translate(725.473 100)">readEcho_ISR</text><text font-family="Times New Roman,Times New Roman_MSFontService,sans-serif" font-weight="400" font-size="24" transform="translate(865.473 100)">() ;</text><rect x="455.5" y="111.5" width="717" height="50" stroke="#A5A5A5" stroke-width="0.666667" stroke-miterlimit="8" fill="url(#fill7)"/><text font-family="Times New Roman,Times New Roman_MSFontService,sans-serif" font-weight="400" font-size="24" transform="translate(512.378 144)">*</text><text font-family="Times New Roman,Times New Roman_MSFontService,sans-serif" font-weight="400" font-size="24" transform="translate(530.378 144)">-</text><text font-family="Times New Roman,Times New Roman_MSFontService,sans-serif" font-weight="400" font-size="24" transform="translate(543.944 144)">This interrupt routine executes at positive edge of Echo Pin</text><rect x="455.5" y="187.5" width="717" height="51" stroke="#A5A5A5" stroke-width="0.666667" stroke-miterlimit="8" fill="url(#fill8)"/><text font-family="Times New Roman,Times New Roman_MSFontService,sans-serif" font-weight="400" font-size="24" transform="translate(616.317 221)">Start</text><text font-family="Times New Roman,Times New Roman_MSFontService,sans-serif" font-weight="400" font-size="24" transform="translate(667.651 221)">Systick</text><text font-family="Times New Roman,Times New Roman_MSFontService,sans-serif" font-weight="400" font-size="24" transform="translate(743.884 221)">Timer from COUNT_MAX</text><rect x="455.5" y="269.5" width="717" height="50" stroke="#A5A5A5" stroke-width="0.666667" stroke-miterlimit="8" fill="url(#fill9)"/><text font-family="Times New Roman,Times New Roman_MSFontService,sans-serif" font-weight="400" font-size="24" transform="translate(642.788 302)">Wait for negative edge on Echo Pin</text><rect x="455.5" y="354.5" width="717" height="51" stroke="#A5A5A5" stroke-width="0.666667" stroke-miterlimit="8" fill="url(#fill10)"/><text font-family="Times New Roman,Times New Roman_MSFontService,sans-serif" font-weight="400" font-size="24" transform="translate(598.161 388)">Extract time elapsed from the STCURRENT</text><rect x="455.5" y="528.5" width="717" height="51" stroke="#A5A5A5" stroke-width="0.666667" stroke-miterlimit="8" fill="url(#fill11)"/><text font-family="Times New Roman,Times New Roman_MSFontService,sans-serif" font-weight="400" font-size="24" transform="translate(630.494 562)">Convert to string and output to OLED</text><rect x="455.5" y="447.5" width="717" height="50" stroke="#A5A5A5" stroke-width="0.666667" stroke-miterlimit="8" fill="url(#fill12)"/><text font-family="Times New Roman,Times New Roman_MSFontService,sans-serif" font-weight="400" font-size="24" transform="translate(719.828 481)">Convert to distance</text><path d="M813.833 161.493 814.218 180.884 813.551 180.897 813.167 161.507ZM817.857 179.478 814.016 187.556 809.859 179.636Z"/><path d="M0.333286-0.00559094 0.737793 24.1078 0.07122 24.119-0.333286 0.00559094ZM4.38158 22.7131 0.516325 30.7791-3.61729 22.8473Z" transform="matrix(-1 0 0 1 814.016 238.5)"/><path d="M813.833 319.5 813.833 347.752 813.167 347.752 813.167 319.5ZM817.5 346.419 813.5 354.419 809.5 346.419Z"/><path d="M813.833 405.5 813.833 440.81 813.167 440.81 813.167 405.5ZM817.5 439.477 813.5 447.477 809.5 439.477Z"/><path d="M813.833 497.5 813.833 521.794 813.167 521.794 813.167 497.5ZM817.5 520.461 813.5 528.461 809.5 520.461Z"/><path d="M809.869 624.892 243.038 537.841 243.139 537.182 809.97 624.233ZM243.8 541.668 236.5 536.5 245.015 533.761Z"/></g></svg>